<svg width="32" height="32" viewBox="0 -2 26 36" fill="none" xmlns="http://www.w3.org/2000/svg">
<path d="M26 32C26 30.2928 25.6637 28.6023 25.0104 27.0251C24.3571 25.4479 23.3995 24.0148 22.1924 22.8076C20.9852 21.6005 19.5521 20.6429 17.9749 19.9896C16.3977 19.3363 14.7072 19 13 19C11.2928 19 9.60235 19.3363 8.02511 19.9896C6.44788 20.6429 5.01477 21.6005 3.80761 22.8076C2.60045 24.0148 1.64288 25.4479 0.989566 27.0251C0.336255 28.6023 -1.49247e-07 30.2928 0 32L5.51278 32C5.51278 31.0168 5.70644 30.0432 6.08271 29.1348C6.45898 28.2264 7.01048 27.401 7.70574 26.7057C8.40099 26.0105 9.22637 25.459 10.1348 25.0827C11.0432 24.7064 12.0168 24.5128 13 24.5128C13.9832 24.5128 14.9568 24.7064 15.8652 25.0827C16.7736 25.459 17.599 26.0105 18.2943 26.7057C18.9895 27.401 19.541 28.2264 19.9173 29.1348C20.2936 30.0432 20.4872 31.0168 20.4872 32H26Z" fill="#333"/>
<path d="M22 9C22 13.9706 17.9706 18 13 18C8.02944 18 4 13.9706 4 9C4 4.02944 8.02944 0 13 0C17.9706 0 22 4.02944 22 9ZM8.5 9C8.5 11.4853 10.5147 13.5 13 13.5C15.4853 13.5 17.5 11.4853 17.5 9C17.5 6.51472 15.4853 4.5 13 4.5C10.5147 4.5 8.5 6.51472 8.5 9Z" fill="#333"/>
</svg>
